<?xml version="1.0" encoding="UTF-8"?>
<svg version="1.1" xmlns="http://www.w3.org/2000/svg" width="379" height="439">
<path d="M0 0 C0.73734375 0.57234375 1.4746875 1.1446875 2.234375 1.734375 C3.15476562 2.40726563 3.15476562 2.40726563 4.09375 3.09375 C17.01584462 13.17061278 25.15005897 29.69719957 27.234375 45.734375 C28.90984556 65.87180575 24.73328438 84.62770936 11.421875 100.359375 C1.80556175 110.79994368 -11.94097361 122.13780987 -26.85449219 122.83154297 C-27.59602539 122.83943848 -28.33755859 122.84733398 -29.1015625 122.85546875 C-37.30967972 122.81403867 -37.30967972 122.81403867 -44.54980469 126.14013672 C-48.02428117 129.89942359 -50.67523682 134.19879297 -53.35351562 138.54296875 C-55.61008569 142.04486587 -58.24216898 145.21241598 -60.890625 148.421875 C-61.89380206 149.66254878 -62.89513188 150.90471866 -63.89453125 152.1484375 C-64.37680176 152.74817383 -64.85907227 153.34791016 -65.35595703 153.96582031 C-67.54822243 156.71621355 -69.6913131 159.50330143 -71.828125 162.296875 C-75.1934101 166.69650021 -78.58748895 171.07101759 -82.015625 175.421875 C-88.033179 183.0617667 -94.00098077 190.73997751 -99.96728516 198.41992188 C-102.89861863 202.19253134 -105.83221698 205.96337855 -108.765625 209.734375 C-109.93230294 211.23436623 -111.0989696 212.73436624 -112.265625 214.234375 C-114.59895833 217.234375 -116.93229167 220.234375 -119.265625 223.234375 C-119.8433667 223.97719727 -120.4211084 224.72001953 -121.01635742 225.48535156 C-122.18053759 226.98213143 -123.3447627 228.47887634 -124.5090332 229.97558594 C-127.46411673 233.77456558 -130.41836514 237.57418965 -133.37109375 241.375 C-139.09159939 248.73704204 -144.82264649 256.09010426 -150.58935547 263.41601562 C-156.07824552 270.39426306 -161.52054173 277.4087666 -166.96728516 284.41992188 C-169.89861863 288.19253134 -172.83221698 291.96337855 -175.765625 295.734375 C-176.93230294 297.23436623 -178.0989696 298.73436624 -179.265625 300.234375 C-181.59895833 303.234375 -183.93229167 306.234375 -186.265625 309.234375 C-186.8433667 309.97719727 -187.4211084 310.72001953 -188.01635742 311.48535156 C-189.18053759 312.98213143 -190.3447627 314.47887634 -191.5090332 315.97558594 C-194.46411673 319.77456558 -197.41836514 323.57418965 -200.37109375 327.375 C-205.65384376 334.17366958 -210.94032697 340.96895764 -216.265625 347.734375 C-227.21321601 361.64689644 -238.03561296 375.6534622 -248.765625 389.734375 C-250.50799677 386.70895475 -251.02056968 384.5181359 -251.0402832 381.03955078 C-251.04981522 380.10982452 -251.05934723 379.18009827 -251.06916809 378.22219849 C-251.06825668 377.21816986 -251.06734528 376.21414124 -251.06640625 375.1796875 C-251.07069138 374.12772186 -251.0749765 373.07575623 -251.07939148 371.99191284 C-251.08514017 369.75421872 -251.0856311 367.51650591 -251.08129883 365.27880859 C-251.07819447 361.93422108 -251.10139437 358.59056816 -251.12695312 355.24609375 C-251.20648796 329.67291426 -248.90615352 309.41736066 -234.265625 288.109375 C-233.35658632 286.76855112 -232.44838945 285.42715617 -231.54101562 284.08520508 C-225.51477664 275.19520557 -219.39567705 266.37019271 -213.13232422 257.64550781 C-211.18394838 254.92098369 -209.2600876 252.17942936 -207.33422852 249.43896484 C-201.0985572 240.57014006 -194.7636828 231.77504383 -188.40234375 222.99609375 C-186.78053436 220.75497767 -185.16297368 218.51086185 -183.546875 216.265625 C-177.41581434 207.75103886 -171.23194152 199.27841614 -164.99633789 190.84008789 C-160.51364586 184.76730419 -156.08506985 178.65728849 -151.67993164 172.52807617 C-148.80868332 168.53991445 -145.91242696 164.57270671 -142.98046875 160.62890625 C-142.35011719 159.78005859 -141.71976562 158.93121094 -141.0703125 158.05664062 C-139.86143538 156.43173781 -138.64939601 154.80918086 -137.43359375 153.18945312 C-136.881875 152.44759766 -136.33015625 151.70574219 -135.76171875 150.94140625 C-135.03746704 149.97424683 -135.03746704 149.97424683 -134.29858398 148.98754883 C-130.11684691 142.84114789 -127.3109131 136.49021921 -124.61328125 129.59375 C-124.2312706 128.63092102 -123.84925995 127.66809204 -123.45567322 126.67608643 C-122.24151265 123.61412452 -121.03432534 120.54948045 -119.828125 117.484375 C-118.62462995 114.43390814 -117.419548 111.38409323 -116.21128845 108.33551025 C-115.46252062 106.44552987 -114.71651555 104.55445149 -113.97389221 102.66204834 C-111.75594245 97.05457298 -109.33178775 91.61575367 -106.65379333 86.21099854 C-105.15234911 82.02427858 -106.37652938 78.80089845 -107.765625 74.734375 C-113.0719631 55.97144092 -109.71072574 36.91648377 -100.6640625 19.94921875 C-91.63851439 4.66521444 -76.96596192 -6.23242128 -59.890625 -11.078125 C-39.08391404 -16.32752455 -17.34259901 -12.92410245 0 0 Z M-69.42578125 36.8515625 C-74.75904174 44.8436788 -76.12844701 53.72557611 -74.30078125 63.125 C-71.12458628 73.87519834 -64.41144939 81.14361292 -54.9375 86.83203125 C-47.10732048 90.49178907 -36.39845908 90.04962917 -28.390625 87.234375 C-19.5931877 83.06254533 -13.70582784 76.52533177 -9.765625 67.734375 C-9.3325 66.80625 -8.899375 65.878125 -8.453125 64.921875 C-6.46826103 55.71932386 -7.39789714 47.09619029 -11.765625 38.734375 C-17.89519068 29.78055375 -26.07395809 23.75893164 -36.765625 21.734375 C-50.18000355 19.81803521 -61.36087755 26.56643825 -69.42578125 36.8515625 Z " fill="#000000" transform="translate(321.765625,35.265625)"/>
<path d="M0 0 C13.41100068 10.34253485 21.98977379 25.56478392 24.90234375 42.23828125 C25.16713015 46.02710073 25.18557101 49.81602142 25.21484375 53.61328125 C25.2293457 54.69963867 25.24384766 55.78599609 25.25878906 56.90527344 C25.24187636 63.21371077 24.6401454 67.72634281 22.15234375 73.48828125 C18.82555578 84.03091919 25.71641788 93.98056542 30.18296814 103.37165833 C33.3932223 110.16527819 36.18894222 117.10899968 38.90893555 124.11108398 C39.70292772 126.14525295 40.51570965 128.17118462 41.33007812 130.19726562 C41.82013733 131.44877806 42.30912508 132.70071076 42.796875 133.953125 C43.22846924 135.0474585 43.66006348 136.14179199 44.10473633 137.26928711 C45.16341609 141.21009048 44.81572316 143.62285578 42.81762695 147.15673828 C42.14219849 148.06721924 42.14219849 148.06721924 41.453125 148.99609375 C40.94136719 149.69500732 40.42960938 150.3939209 39.90234375 151.11401367 C39.34546875 151.85627197 38.78859375 152.59853027 38.21484375 153.36328125 C37.64121094 154.14227783 37.06757813 154.92127441 36.4765625 155.72387695 C35.25585956 157.37971954 34.03130063 159.03272526 32.80322266 160.68310547 C30.26506938 164.09491028 27.74677688 167.52117455 25.22729492 170.94677734 C23.48697882 173.31081343 21.74173302 175.67114366 19.99609375 178.03125 C17.25897236 181.7397446 14.57052981 185.47992215 11.90234375 189.23828125 C7.37134332 187.65994698 5.09938016 184.08443103 2.27734375 180.42578125 C1.74737793 179.75071533 1.21741211 179.07564941 0.67138672 178.38012695 C-0.92684422 176.33932741 -2.51397066 174.29038089 -4.09765625 172.23828125 C-4.52884766 171.68140625 -4.96003906 171.12453125 -5.40429688 170.55078125 C-7.41268915 167.9551208 -9.41213514 165.35272328 -11.40625 162.74609375 C-19.39485363 152.3145939 -27.49745976 141.96856247 -35.63452148 131.65258789 C-39.05919867 127.30667587 -39.05919867 127.30667587 -40.40234375 124.91796875 C-43.10975675 122.23550886 -46.41288561 122.46738888 -50.03515625 122.23828125 C-68.77976695 120.51801036 -85.06914017 111.95851977 -97.34765625 97.55078125 C-109.28987659 81.75860487 -113.82128902 63.18188439 -111.70703125 43.625 C-109.46383468 30.00764646 -103.37252066 17.49393592 -94.09765625 7.23828125 C-93.56785156 6.62855469 -93.03804687 6.01882812 -92.4921875 5.390625 C-68.18884001 -20.87546314 -27.48541227 -20.3087815 0 0 Z M-70.81640625 34.3125 C-75.35318777 41.13150394 -78.11639634 49.00103997 -77.09765625 57.23828125 C-75.01697658 66.93976356 -71.80387893 75.0422633 -63.6328125 81.05078125 C-54.02483802 87.06118333 -44.56445924 89.01012626 -33.31640625 86.65625 C-23.79218523 83.35592658 -16.4768956 76.15003357 -11.9375 67.28125 C-8.99981141 60.13515171 -8.89518231 50.99320678 -10.78125 43.53515625 C-11.72860235 41.28666851 -12.79486537 39.30001885 -14.09765625 37.23828125 C-14.73380859 36.19414063 -14.73380859 36.19414063 -15.3828125 35.12890625 C-21.0668455 26.705771 -29.22963147 22.1637495 -39.09765625 20.23828125 C-51.31987089 18.56845306 -63.30662135 24.90440836 -70.81640625 34.3125 Z " fill="#000000" transform="translate(128.09765625,36.76171875)"/>
<path d="M0 0 C3.3815623 1.40349597 4.91706712 2.88737688 6.91796875 5.9296875 C7.44511475 6.71851318 7.97226074 7.50733887 8.51538086 8.32006836 C9.06718018 9.1631958 9.61897949 10.00632324 10.1875 10.875 C11.35731 12.62507999 12.52918337 14.37378254 13.703125 16.12109375 C14.55487305 17.39122314 14.55487305 17.39122314 15.42382812 18.68701172 C17.34398908 21.50479438 19.36505855 24.23008119 21.4375 26.9375 C27.90557571 35.42314062 33.9189705 44.23529091 40 53 C40.50354004 53.72300293 41.00708008 54.44600586 41.52587891 55.19091797 C44.25636665 59.11197662 46.9637506 63.04736158 49.64257812 67.00390625 C50.58047342 68.38308466 51.52491576 69.7578254 52.47460938 71.12890625 C72.92396394 100.70507495 70.09786518 137.46014821 68 172 C63.51426803 168.78427563 60.62217329 165.10606186 57.4375 160.6875 C53.35851419 155.13558238 49.20465062 149.67148494 44.875 144.3125 C40.82871189 139.29481646 36.84459127 134.24120272 32.92700195 129.12207031 C24.76242377 118.45536592 16.4856302 107.87450954 8.17724609 97.31958008 C3.30130351 91.12067304 -1.53688845 84.89251191 -6.375 78.6640625 C-8.80879371 75.5309482 -11.24651373 72.40095116 -13.6875 69.2734375 C-20.21083644 60.91108 -26.68453928 52.5208597 -33 44 C-30.35133164 39.23614066 -27.05001803 35.08112718 -23.6875 30.8125 C-22.43615389 29.21357612 -21.1848532 27.61461669 -19.93359375 26.015625 C-19.28890137 25.19384766 -18.64420898 24.37207031 -17.97998047 23.52539062 C-14.72810657 19.37774777 -11.48856002 15.22054108 -8.25 11.0625 C-7.65405029 10.29977783 -7.05810059 9.53705566 -6.4440918 8.7512207 C-5.89019775 8.04054443 -5.33630371 7.32986816 -4.765625 6.59765625 C-4.27868164 5.97383057 -3.79173828 5.35000488 -3.29003906 4.70727539 C-2.13594686 3.17991604 -1.06189314 1.59283971 0 0 Z " fill="#000000" transform="translate(226,253)"/>
</svg>
