<?xml version="1.0" encoding="UTF-8"?>
<svg version="1.1" xmlns="http://www.w3.org/2000/svg" width="2000" height="483">
<path d="M0 0 C0.73734375 0.57234375 1.4746875 1.1446875 2.234375 1.734375 C3.15476562 2.40726563 3.15476562 2.40726563 4.09375 3.09375 C17.01584462 13.17061278 25.15005897 29.69719957 27.234375 45.734375 C28.90984556 65.87180575 24.73328438 84.62770936 11.421875 100.359375 C1.80556175 110.79994368 -11.94097361 122.13780987 -26.85449219 122.83154297 C-27.59602539 122.83943848 -28.33755859 122.84733398 -29.1015625 122.85546875 C-37.30967972 122.81403867 -37.30967972 122.81403867 -44.54980469 126.14013672 C-48.02428117 129.89942359 -50.67523682 134.19879297 -53.35351562 138.54296875 C-55.61008569 142.04486587 -58.24216898 145.21241598 -60.890625 148.421875 C-61.89380206 149.66254878 -62.89513188 150.90471866 -63.89453125 152.1484375 C-64.37680176 152.74817383 -64.85907227 153.34791016 -65.35595703 153.96582031 C-67.54822243 156.71621355 -69.6913131 159.50330143 -71.828125 162.296875 C-75.1934101 166.69650021 -78.58748895 171.07101759 -82.015625 175.421875 C-88.033179 183.0617667 -94.00098077 190.73997751 -99.96728516 198.41992188 C-102.89861863 202.19253134 -105.83221698 205.96337855 -108.765625 209.734375 C-109.93230294 211.23436623 -111.0989696 212.73436624 -112.265625 214.234375 C-114.59895833 217.234375 -116.93229167 220.234375 -119.265625 223.234375 C-119.8433667 223.97719727 -120.4211084 224.72001953 -121.01635742 225.48535156 C-122.18053759 226.98213143 -123.3447627 228.47887634 -124.5090332 229.97558594 C-127.46411673 233.77456558 -130.41836514 237.57418965 -133.37109375 241.375 C-139.09159939 248.73704204 -144.82264649 256.09010426 -150.58935547 263.41601562 C-156.07824552 270.39426306 -161.52054173 277.4087666 -166.96728516 284.41992188 C-169.89861863 288.19253134 -172.83221698 291.96337855 -175.765625 295.734375 C-176.93230294 297.23436623 -178.0989696 298.73436624 -179.265625 300.234375 C-181.59895833 303.234375 -183.93229167 306.234375 -186.265625 309.234375 C-186.8433667 309.97719727 -187.4211084 310.72001953 -188.01635742 311.48535156 C-189.18053759 312.98213143 -190.3447627 314.47887634 -191.5090332 315.97558594 C-194.46411673 319.77456558 -197.41836514 323.57418965 -200.37109375 327.375 C-205.65384376 334.17366958 -210.94032697 340.96895764 -216.265625 347.734375 C-227.21321601 361.64689644 -238.03561296 375.6534622 -248.765625 389.734375 C-250.50799677 386.70895475 -251.02056968 384.5181359 -251.0402832 381.03955078 C-251.04981522 380.10982452 -251.05934723 379.18009827 -251.06916809 378.22219849 C-251.06825668 377.21816986 -251.06734528 376.21414124 -251.06640625 375.1796875 C-251.07069138 374.12772186 -251.0749765 373.07575623 -251.07939148 371.99191284 C-251.08514017 369.75421872 -251.0856311 367.51650591 -251.08129883 365.27880859 C-251.07819447 361.93422108 -251.10139437 358.59056816 -251.12695312 355.24609375 C-251.20648796 329.67291426 -248.90615352 309.41736066 -234.265625 288.109375 C-233.35658632 286.76855112 -232.44838945 285.42715617 -231.54101562 284.08520508 C-225.51477664 275.19520557 -219.39567705 266.37019271 -213.13232422 257.64550781 C-211.18394838 254.92098369 -209.2600876 252.17942936 -207.33422852 249.43896484 C-201.0985572 240.57014006 -194.7636828 231.77504383 -188.40234375 222.99609375 C-186.78053436 220.75497767 -185.16297368 218.51086185 -183.546875 216.265625 C-177.41581434 207.75103886 -171.23194152 199.27841614 -164.99633789 190.84008789 C-160.51364586 184.76730419 -156.08506985 178.65728849 -151.67993164 172.52807617 C-148.80868332 168.53991445 -145.91242696 164.57270671 -142.98046875 160.62890625 C-142.35011719 159.78005859 -141.71976562 158.93121094 -141.0703125 158.05664062 C-139.86143538 156.43173781 -138.64939601 154.80918086 -137.43359375 153.18945312 C-136.881875 152.44759766 -136.33015625 151.70574219 -135.76171875 150.94140625 C-135.03746704 149.97424683 -135.03746704 149.97424683 -134.29858398 148.98754883 C-130.11684691 142.84114789 -127.3109131 136.49021921 -124.61328125 129.59375 C-124.2312706 128.63092102 -123.84925995 127.66809204 -123.45567322 126.67608643 C-122.24151265 123.61412452 -121.03432534 120.54948045 -119.828125 117.484375 C-118.62462995 114.43390814 -117.419548 111.38409323 -116.21128845 108.33551025 C-115.46252062 106.44552987 -114.71651555 104.55445149 -113.97389221 102.66204834 C-111.75594245 97.05457298 -109.33178775 91.61575367 -106.65379333 86.21099854 C-105.15234911 82.02427858 -106.37652938 78.80089845 -107.765625 74.734375 C-113.0719631 55.97144092 -109.71072574 36.91648377 -100.6640625 19.94921875 C-91.63851439 4.66521444 -76.96596192 -6.23242128 -59.890625 -11.078125 C-39.08391404 -16.32752455 -17.34259901 -12.92410245 0 0 Z M-69.42578125 36.8515625 C-74.75904174 44.8436788 -76.12844701 53.72557611 -74.30078125 63.125 C-71.12458628 73.87519834 -64.41144939 81.14361292 -54.9375 86.83203125 C-47.10732048 90.49178907 -36.39845908 90.04962917 -28.390625 87.234375 C-19.5931877 83.06254533 -13.70582784 76.52533177 -9.765625 67.734375 C-9.3325 66.80625 -8.899375 65.878125 -8.453125 64.921875 C-6.46826103 55.71932386 -7.39789714 47.09619029 -11.765625 38.734375 C-17.89519068 29.78055375 -26.07395809 23.75893164 -36.765625 21.734375 C-50.18000355 19.81803521 -61.36087755 26.56643825 -69.42578125 36.8515625 Z " fill="#000000" transform="translate(324.765625,51.265625)"/>
<path d="M0 0 C13.25043464 12.01578515 20.15633557 26.68533871 23.34765625 44.12890625 C19.01571434 45.11429711 14.68187764 46.09109484 10.34765625 47.06640625 C9.12691406 47.34419922 7.90617188 47.62199219 6.6484375 47.90820312 C0.55431703 49.27526258 -5.43463764 50.51490777 -11.65234375 51.12890625 C-11.87148438 49.95714844 -12.090625 48.78539062 -12.31640625 47.578125 C-15.05469783 33.6928712 -18.61437111 22.67198361 -30.65234375 14.12890625 C-44.67127287 5.48830843 -62.53643226 4.93268744 -78.39648438 8.25830078 C-89.16932779 10.92004276 -98.47194032 15.65338057 -104.65234375 25.12890625 C-109.0434613 33.702661 -110.13258067 42.41654374 -107.65234375 51.75390625 C-104.10035228 60.79533909 -97.48200948 65.92201505 -88.80493164 69.7487793 C-78.37583255 74.04650562 -67.47103998 76.49264457 -56.5078125 79.00390625 C-55.77549911 79.17269791 -55.04318573 79.34148956 -54.28868103 79.51539612 C-50.60749353 80.36357494 -46.92461533 81.20022213 -43.23510742 82.01147461 C-20.66777491 87.07546711 2.64598302 95.46986294 15.8828125 115.58984375 C25.02288565 131.43263721 26.12867684 152.25595375 21.78515625 169.81640625 C16.6568777 187.20560431 6.90749569 198.74276761 -8.53515625 207.82421875 C-33.46117543 221.05162626 -66.31205909 221.55185417 -93.15234375 213.91015625 C-114.47272656 207.24858197 -131.40008536 194.10479471 -141.92529297 174.23852539 C-147.18185002 163.88713251 -150.57116356 153.71574196 -151.65234375 142.12890625 C-146.98980728 141.12941155 -142.32671601 140.13256307 -137.66308594 139.13818359 C-136.07601565 138.79939638 -134.48910057 138.45988124 -132.90234375 138.11962891 C-130.62410053 137.63123052 -128.34531549 137.14543612 -126.06640625 136.66015625 C-125.3548941 136.50703979 -124.64338196 136.35392334 -123.91030884 136.19616699 C-118.88008716 135.12890625 -118.88008716 135.12890625 -116.65234375 135.12890625 C-116.49378906 136.34964844 -116.33523438 137.57039062 -116.171875 138.828125 C-113.81043498 155.93505875 -109.73192899 171.39343958 -95.46484375 182.50390625 C-79.81571717 193.13308986 -59.55376416 194.76913092 -41.21484375 191.48046875 C-30.89395871 188.78505904 -20.48639669 183.37061703 -14.65234375 174.12890625 C-8.7425489 162.95343588 -6.78150292 151.39294941 -9.30078125 138.91796875 C-12.38237401 129.51516008 -17.5889685 123.73528831 -26.27734375 119.06640625 C-37.08948079 113.69939892 -49.10393142 111.59411867 -60.80371094 108.9921875 C-116.81616647 96.42811475 -116.81616647 96.42811475 -131.52734375 74.87890625 C-140.14134517 60.03349955 -141.17390407 41.99887381 -137.52734375 25.31640625 C-132.77379264 10.40159451 -122.75706489 -0.33953731 -109.2734375 -8.08984375 C-76.40338589 -24.92105887 -28.96537192 -24.1913645 0 0 Z " fill="#000000" transform="translate(740.65234375,147.87109375)"/>
<path d="M0 0 C13.41100068 10.34253485 21.98977379 25.56478392 24.90234375 42.23828125 C25.16713015 46.02710073 25.18557101 49.81602142 25.21484375 53.61328125 C25.2293457 54.69963867 25.24384766 55.78599609 25.25878906 56.90527344 C25.24187636 63.21371077 24.6401454 67.72634281 22.15234375 73.48828125 C18.82555578 84.03091919 25.71641788 93.98056542 30.18296814 103.37165833 C33.3932223 110.16527819 36.18894222 117.10899968 38.90893555 124.11108398 C39.70292772 126.14525295 40.51570965 128.17118462 41.33007812 130.19726562 C41.82013733 131.44877806 42.30912508 132.70071076 42.796875 133.953125 C43.22846924 135.0474585 43.66006348 136.14179199 44.10473633 137.26928711 C45.16341609 141.21009048 44.81572316 143.62285578 42.81762695 147.15673828 C42.14219849 148.06721924 42.14219849 148.06721924 41.453125 148.99609375 C40.94136719 149.69500732 40.42960938 150.3939209 39.90234375 151.11401367 C39.34546875 151.85627197 38.78859375 152.59853027 38.21484375 153.36328125 C37.64121094 154.14227783 37.06757813 154.92127441 36.4765625 155.72387695 C35.25585956 157.37971954 34.03130063 159.03272526 32.80322266 160.68310547 C30.26506938 164.09491028 27.74677688 167.52117455 25.22729492 170.94677734 C23.48697882 173.31081343 21.74173302 175.67114366 19.99609375 178.03125 C17.25897236 181.7397446 14.57052981 185.47992215 11.90234375 189.23828125 C7.37134332 187.65994698 5.09938016 184.08443103 2.27734375 180.42578125 C1.74737793 179.75071533 1.21741211 179.07564941 0.67138672 178.38012695 C-0.92684422 176.33932741 -2.51397066 174.29038089 -4.09765625 172.23828125 C-4.52884766 171.68140625 -4.96003906 171.12453125 -5.40429688 170.55078125 C-7.41268915 167.9551208 -9.41213514 165.35272328 -11.40625 162.74609375 C-19.39485363 152.3145939 -27.49745976 141.96856247 -35.63452148 131.65258789 C-39.05919867 127.30667587 -39.05919867 127.30667587 -40.40234375 124.91796875 C-43.10975675 122.23550886 -46.41288561 122.46738888 -50.03515625 122.23828125 C-68.77976695 120.51801036 -85.06914017 111.95851977 -97.34765625 97.55078125 C-109.28987659 81.75860487 -113.82128902 63.18188439 -111.70703125 43.625 C-109.46383468 30.00764646 -103.37252066 17.49393592 -94.09765625 7.23828125 C-93.56785156 6.62855469 -93.03804687 6.01882812 -92.4921875 5.390625 C-68.18884001 -20.87546314 -27.48541227 -20.3087815 0 0 Z M-70.81640625 34.3125 C-75.35318777 41.13150394 -78.11639634 49.00103997 -77.09765625 57.23828125 C-75.01697658 66.93976356 -71.80387893 75.0422633 -63.6328125 81.05078125 C-54.02483802 87.06118333 -44.56445924 89.01012626 -33.31640625 86.65625 C-23.79218523 83.35592658 -16.4768956 76.15003357 -11.9375 67.28125 C-8.99981141 60.13515171 -8.89518231 50.99320678 -10.78125 43.53515625 C-11.72860235 41.28666851 -12.79486537 39.30001885 -14.09765625 37.23828125 C-14.73380859 36.19414063 -14.73380859 36.19414063 -15.3828125 35.12890625 C-21.0668455 26.705771 -29.22963147 22.1637495 -39.09765625 20.23828125 C-51.31987089 18.56845306 -63.30662135 24.90440836 -70.81640625 34.3125 Z " fill="#000000" transform="translate(131.09765625,52.76171875)"/>
<path d="M0 0 C9.24 0 18.48 0 28 0 C28 78.54 28 157.08 28 238 C19.42 238 10.84 238 2 238 C1.505 225.13 1.505 225.13 1 212 C-1.31 215.3 -3.62 218.6 -6 222 C-16.18161873 234.05171197 -31.59230379 240.1922988 -47 242 C-64.25336405 243.00919565 -81.55446325 240.00289424 -95.11328125 228.68359375 C-97.52025771 226.53575347 -99.80572642 224.3675057 -102 222 C-102.51949219 221.4740625 -103.03898437 220.948125 -103.57421875 220.40625 C-112.93390453 210.47867317 -118.64042245 198.11602514 -122 185 C-122.24556641 184.04359619 -122.24556641 184.04359619 -122.49609375 183.06787109 C-129.30362543 154.803956 -127.14152896 120.50222258 -112.1875 95.0625 C-108.32961003 89.17259165 -103.95957361 83.9869242 -99 79 C-98.2265625 78.17435547 -98.2265625 78.17435547 -97.4375 77.33203125 C-86.18957928 66.40631659 -69.70998903 62.21612065 -54.5 61.625 C-34.69282145 62.33770208 -18.35630605 69.3108771 -4.41015625 83.421875 C-3 85 -3 85 -1 88 C-0.67 58.96 -0.34 29.92 0 0 Z M-75.8125 95.75 C-89.75122306 108.80695469 -94.56718039 127.83068926 -95.3515625 146.2890625 C-95.85858503 168.9166557 -92.76801022 190.6039609 -76.75 207.75 C-68.52589576 215.64348698 -58.88085799 218.8257602 -47.625 219.3125 C-36.06268335 218.98622651 -24.7669596 214.83499351 -16.3125 206.9375 C-1.04854905 190.62179271 1.64262782 169.08799648 1.25 147.65234375 C0.67016927 130.67200076 -2.24342949 113.93714663 -14 101 C-14.89332031 99.95199219 -14.89332031 99.95199219 -15.8046875 98.8828125 C-23.57933388 90.33392747 -33.16086948 86.3269852 -44.5546875 85.125 C-56.20733088 84.70222836 -66.64232452 88.54486213 -75.8125 95.75 Z " fill="#000000" transform="translate(1214,124)"/>
<path d="M0 0 C14.2154737 13.51455666 20.20881286 30.6714139 20.72265625 49.97265625 C20.21750121 82.60567152 3.75157801 106.0399182 -18.46484375 128.41015625 C-25.11601877 134.82310866 -32.28158597 140.60933676 -39.46484375 146.41015625 C-40.71928344 147.43293983 -41.9731571 148.45641792 -43.2265625 149.48046875 C-49.65477582 154.72744594 -56.10595882 159.93616701 -62.65234375 165.03515625 C-68.34885038 169.47223939 -73.86560758 174.08757778 -79.33203125 178.8046875 C-82.93819704 181.80383037 -86.71257172 184.59595223 -90.46484375 187.41015625 C-52.51484375 187.74015625 -14.56484375 188.07015625 24.53515625 188.41015625 C24.53515625 196.66015625 24.53515625 204.91015625 24.53515625 213.41015625 C-28.92484375 213.41015625 -82.38484375 213.41015625 -137.46484375 213.41015625 C-137.46484375 193.41015625 -137.46484375 193.41015625 -132.65234375 187.72265625 C-130.62297014 186.23875758 -128.559859 184.79984096 -126.46484375 183.41015625 C-124.69995898 181.99097056 -122.949713 180.55338113 -121.21484375 179.09765625 C-120.30992188 178.36675781 -119.405 177.63585937 -118.47265625 176.8828125 C-114.95783123 173.99335245 -111.52073524 171.02333799 -108.08984375 168.03515625 C-101.79210715 162.55149402 -95.44386345 157.13309654 -89.05761719 151.75292969 C-86.35669573 149.47594194 -83.66104068 147.19273435 -80.96484375 144.91015625 C-77.19246112 141.71718262 -73.41855287 138.52603736 -69.64208984 135.33789062 C-68.01184405 133.95955157 -66.38477336 132.57752649 -64.7578125 131.1953125 C-62.58671416 129.35248577 -60.4010522 127.52946398 -58.203125 125.71875 C-50.9914689 119.72838871 -44.19579209 113.37503103 -37.52734375 106.78515625 C-36.33794189 105.62209961 -36.33794189 105.62209961 -35.12451172 104.43554688 C-20.08486526 89.38001906 -11.7215365 71.76060503 -11.4375 50.42236328 C-11.62112282 36.90969092 -15.20107665 25.3440682 -24.46484375 15.41015625 C-33.84086255 6.35744844 -48.13849268 5.08606434 -60.5078125 5.1953125 C-72.71006535 5.85782376 -83.72208144 9.66739394 -92.46484375 18.41015625 C-100.64853511 29.89603886 -103.37242828 41.7460492 -105.46484375 55.41015625 C-108.75683828 54.47380506 -112.04837608 53.53585762 -115.33984375 52.59765625 C-116.7165625 52.20610352 -116.7165625 52.20610352 -118.12109375 51.80664062 C-119.97358112 51.27829035 -121.82482356 50.74555595 -123.67480469 50.20849609 C-125.56312707 49.66817284 -127.45737073 49.14819751 -129.35644531 48.64697266 C-130.26104492 48.39995605 -131.16564453 48.15293945 -132.09765625 47.8984375 C-132.91379395 47.68356689 -133.72993164 47.46869629 -134.57080078 47.24731445 C-135.50835205 46.83292114 -135.50835205 46.83292114 -136.46484375 46.41015625 C-138.88374989 39.15343784 -135.11779365 30.22211312 -131.84716797 23.57324219 C-127.98674274 16.2416154 -123.34522656 10.27978882 -117.46484375 4.41015625 C-116.91441406 3.78882813 -116.36398437 3.1675 -115.796875 2.52734375 C-87.64434772 -28.47519247 -30.2650347 -26.08454069 0 0 Z " fill="#000000" transform="translate(1768.46484375,148.58984375)"/>
<path d="M0 0 C8.25 0 16.5 0 25 0 C25 47.85 25 95.7 25 145 C33.58 145 42.16 145 51 145 C51 153.25 51 161.5 51 170 C42.42 170 33.84 170 25 170 C25 189.47 25 208.94 25 229 C15.43 229 5.86 229 -4 229 C-4 209.53 -4 190.06 -4 170 C-42.28 170 -80.56 170 -120 170 C-120 141 -120 141 -115.5625 134.375 C-113.73380184 132.88485465 -111.87984189 131.42508407 -110 130 C-108.49178434 128.2714537 -107.0330422 126.49857813 -105.625 124.6875 C-102.19213645 120.43872698 -98.68774541 116.26458168 -95.125 112.125 C-91.21163382 107.57708419 -87.30994726 103.02033529 -83.4375 98.4375 C-82.98777832 97.90527832 -82.53805664 97.37305664 -82.07470703 96.82470703 C-81.16931558 95.7528666 -80.26404183 94.68092674 -79.35888672 93.60888672 C-77.07453814 90.90427711 -74.78710492 88.20227873 -72.5 85.5 C-71.58331874 84.41667901 -70.66665207 83.33334568 -69.75 82.25 C-67.91666667 80.08333333 -66.08333333 77.91666667 -64.25 75.75 C-63.79633057 75.21383057 -63.34266113 74.67766113 -62.87524414 74.12524414 C-61.95782203 73.04104762 -61.04034148 71.95690055 -60.12280273 70.87280273 C-57.84221456 68.17807689 -55.56262185 65.48252188 -53.28515625 62.78515625 C-48.50591674 57.12729174 -43.7055149 51.48917257 -38.875 45.875 C-35.38184894 41.81371255 -31.93551604 37.72481413 -28.5625 33.5625 C-24.42726375 28.46662811 -20.13474169 23.52022019 -15.82128906 18.57568359 C-11.68227649 13.81936406 -7.66305307 8.98438312 -3.70703125 4.07421875 C-2 2 -2 2 0 0 Z M-5 44 C-6.87009181 46.07956638 -8.69373752 48.17842618 -10.5 50.3125 C-11.04462891 50.951875 -11.58925781 51.59125 -12.15039062 52.25 C-16.04612508 56.83698698 -19.86338754 61.4838832 -23.65625 66.15625 C-26.89898288 70.0907659 -30.23031608 73.946457 -33.55859375 77.80859375 C-36.58958284 81.33317903 -39.56992581 84.89048832 -42.5 88.5 C-46.4337857 93.34596789 -50.48447759 98.08098528 -54.55859375 102.80859375 C-57.58958284 106.33317903 -60.56992581 109.89048832 -63.5 113.5 C-66.93208773 117.72793416 -70.44571823 121.87509201 -74 126 C-83.28050491 135.02055288 -83.28050491 135.02055288 -89 145 C-60.95 145 -32.9 145 -4 145 C-4 111.67 -4 78.34 -4 44 C-4.33 44 -4.66 44 -5 44 Z " fill="#000000" transform="translate(1926,133)"/>
<path d="M0 0 C17.82813382 14.26698649 28.50959502 34.16173579 31.796875 56.67578125 C31.90773438 57.42472656 32.01859375 58.17367187 32.1328125 58.9453125 C35.43462221 85.85059974 30.53437741 113.63946341 13.921875 135.55078125 C0.46670238 152.60330851 -17.66010261 161.76291239 -39.00927734 164.44873047 C-61.29525242 166.75520241 -83.1267453 161.72342396 -100.828125 147.578125 C-118.79013745 132.05303192 -129.16460056 110.270941 -131.203125 86.67578125 C-132.55052563 58.7407194 -128.400689 32.08188488 -109.50390625 10.16796875 C-81.7482124 -19.89677263 -33.07549557 -23.99990228 0 0 Z M-84.203125 21.67578125 C-99.49984434 40.29901319 -103.26545677 63.49807328 -100.97607422 87.00732422 C-99.3336965 100.40414423 -95.48048367 112.83841474 -87.203125 123.67578125 C-86.76484375 124.289375 -86.3265625 124.90296875 -85.875 125.53515625 C-78.96575797 134.50922923 -68.61843657 139.19271894 -57.765625 141.36328125 C-56.59 141.46640625 -55.414375 141.56953125 -54.203125 141.67578125 C-53.5121875 141.74023438 -52.82125 141.8046875 -52.109375 141.87109375 C-39.65777799 142.4936736 -27.57267183 138.88065343 -18.203125 130.67578125 C-17.55988281 130.12921875 -16.91664062 129.58265625 -16.25390625 129.01953125 C-2.48067018 116.35173929 1.76718212 97.20677651 2.67138672 79.26806641 C3.39934977 58.12423564 -0.58880801 37.01050291 -15.265625 20.86328125 C-35.27352243 2.27486302 -64.2221725 4.47660807 -84.203125 21.67578125 Z " fill="#000000" transform="translate(1490.203125,201.32421875)"/>
<path d="M0 0 C9.24 0 18.48 0 28 0 C28.0093457 3.46048828 28.01869141 6.92097656 28.02832031 10.48632812 C28.06221415 21.96956103 28.11763431 33.45263543 28.18390274 44.93572235 C28.22353063 51.8922102 28.25600485 58.84858759 28.27099609 65.80517578 C28.28550702 72.52918391 28.32080245 79.25280008 28.36830902 85.97666931 C28.38305068 88.53121447 28.39103683 91.08580857 28.39188385 93.64039612 C27.9515549 120.41942739 27.9515549 120.41942739 39.59375 143.765625 C46.99851954 150.69918193 56.34071863 152.33776243 66.21875 152.21875 C79.70722233 151.15785892 89.8230971 145.74756745 99 136 C113.56259674 117.47155448 113.12250833 91.54281247 113.31640625 69.23828125 C113.33701206 67.23617662 113.35800939 65.23407599 113.37937927 63.23197937 C113.43422582 57.99605573 113.48379802 52.7600953 113.53222656 47.52410889 C113.58271712 42.16773252 113.63825846 36.8114087 113.69335938 31.45507812 C113.80048236 20.97009557 113.90155906 10.48506767 114 0 C122.91 0 131.82 0 141 0 C141 56.76 141 113.52 141 172 C132.42 172 123.84 172 115 172 C114.505 159.13 114.505 159.13 114 146 C112.02 148.97 110.04 151.94 108 155 C97.79607704 167.47373348 82.8392136 174.34334756 67 176 C49.76176518 177.20521557 35.30087299 173.68459363 20.875 163.875 C6.90103943 151.1126545 1.35052536 133.34464138 0 115 C-0.12725823 111.10179974 -0.12701566 107.20809738 -0.11352539 103.30810547 C-0.11367142 102.18498459 -0.11381744 101.06186371 -0.1139679 99.90470886 C-0.11327621 96.22551481 -0.10551892 92.54637261 -0.09765625 88.8671875 C-0.09578942 86.30315173 -0.09436677 83.7391156 -0.09336853 81.17507935 C-0.08995217 75.13697971 -0.08208622 69.09890203 -0.07201904 63.06081116 C-0.0607992 56.18042253 -0.05533273 49.30003296 -0.05032361 42.41963744 C-0.03990182 28.27974631 -0.02158 14.13987828 0 0 Z " fill="#000000" transform="translate(909,190)"/>
<path d="M0 0 C0 13.53 0 27.06 0 41 C11.22 41 22.44 41 34 41 C34 48.59 34 56.18 34 64 C22.78 64 11.56 64 0 64 C0.10795287 79.72467183 0.21993956 95.44929816 0.33933926 111.1738863 C0.39464688 118.474876 0.44812485 125.7758706 0.49731445 133.0769043 C0.54018642 139.43954874 0.58647203 145.80215756 0.63687855 152.16474694 C0.66345521 155.53452092 0.68830767 158.90428795 0.70907402 162.27410316 C0.73309828 166.033453 0.76315575 169.79270858 0.79467773 173.55200195 C0.80331093 175.23298225 0.80331093 175.23298225 0.81211853 176.94792175 C0.82190735 177.97015839 0.83169617 178.99239502 0.84178162 180.04560852 C0.84823417 180.93513875 0.85468672 181.82466898 0.8613348 182.74115467 C0.91301763 185.16822887 0.91301763 185.16822887 2 188 C4.89924366 189.44962183 7.52300355 189.22126481 10.7578125 189.31640625 C11.75238968 189.3475779 11.75238968 189.3475779 12.76705933 189.37937927 C14.88626694 189.44479231 17.005599 189.50372105 19.125 189.5625 C20.56121081 189.60569309 21.99740902 189.64930764 23.43359375 189.69335938 C26.95560344 189.80125909 30.47770688 189.90039243 34 190 C34 197.59 34 205.18 34 213 C28.18254244 213.09221861 22.36765704 213.17173837 16.55004883 213.21972656 C14.5743751 213.23974646 12.59875991 213.26697092 10.62329102 213.30175781 C7.7708485 213.35070207 4.91919451 213.37306525 2.06640625 213.390625 C0.75803551 213.42159271 0.75803551 213.42159271 -0.57676697 213.45318604 C-8.81703206 213.45614915 -16.01734443 210.81172255 -22 205 C-25.61797613 200.07553249 -27.12602279 196.7020015 -27.12025452 190.62800598 C-27.12162918 189.51321365 -27.12300385 188.39842133 -27.12442017 187.24984741 C-27.12082489 186.02633575 -27.11722961 184.8028241 -27.11352539 183.54223633 C-27.11367142 182.25432693 -27.11381744 180.96641754 -27.1139679 179.63948059 C-27.11425513 176.10669914 -27.10837032 172.57395156 -27.10139394 169.04117799 C-27.09514812 165.34961255 -27.09455563 161.65804635 -27.09336853 157.96647644 C-27.09025884 150.97545691 -27.08205033 143.98445299 -27.07201904 136.99344033 C-27.06084667 129.0346368 -27.05534461 121.07583253 -27.05032361 113.11702311 C-27.03986742 96.74467149 -27.02152643 80.37234138 -27 64 C-36.24 64 -45.48 64 -55 64 C-55 56.41 -55 48.82 -55 41 C-45.76 41 -36.52 41 -27 41 C-27 29.12 -27 17.24 -27 5 C-23.473125 4.175 -19.94625 3.35 -16.3125 2.5 C-15.20946533 2.23896484 -14.10643066 1.97792969 -12.9699707 1.70898438 C-12.08913818 1.50595703 -11.20830566 1.30292969 -10.30078125 1.09375 C-8.95753784 0.77954102 -8.95753784 0.77954102 -7.5871582 0.45898438 C-5 0 -5 0 0 0 Z " fill="#000000" transform="translate(842,149)"/>
<path d="M0 0 C3.3815623 1.40349597 4.91706712 2.88737688 6.91796875 5.9296875 C7.44511475 6.71851318 7.97226074 7.50733887 8.51538086 8.32006836 C9.06718018 9.1631958 9.61897949 10.00632324 10.1875 10.875 C11.35731 12.62507999 12.52918337 14.37378254 13.703125 16.12109375 C14.55487305 17.39122314 14.55487305 17.39122314 15.42382812 18.68701172 C17.34398908 21.50479438 19.36505855 24.23008119 21.4375 26.9375 C27.90557571 35.42314062 33.9189705 44.23529091 40 53 C40.50354004 53.72300293 41.00708008 54.44600586 41.52587891 55.19091797 C44.25636665 59.11197662 46.9637506 63.04736158 49.64257812 67.00390625 C50.58047342 68.38308466 51.52491576 69.7578254 52.47460938 71.12890625 C72.92396394 100.70507495 70.09786518 137.46014821 68 172 C63.51426803 168.78427563 60.62217329 165.10606186 57.4375 160.6875 C53.35851419 155.13558238 49.20465062 149.67148494 44.875 144.3125 C40.82871189 139.29481646 36.84459127 134.24120272 32.92700195 129.12207031 C24.76242377 118.45536592 16.4856302 107.87450954 8.17724609 97.31958008 C3.30130351 91.12067304 -1.53688845 84.89251191 -6.375 78.6640625 C-8.80879371 75.5309482 -11.24651373 72.40095116 -13.6875 69.2734375 C-20.21083644 60.91108 -26.68453928 52.5208597 -33 44 C-30.35133164 39.23614066 -27.05001803 35.08112718 -23.6875 30.8125 C-22.43615389 29.21357612 -21.1848532 27.61461669 -19.93359375 26.015625 C-19.28890137 25.19384766 -18.64420898 24.37207031 -17.97998047 23.52539062 C-14.72810657 19.37774777 -11.48856002 15.22054108 -8.25 11.0625 C-7.65405029 10.29977783 -7.05810059 9.53705566 -6.4440918 8.7512207 C-5.89019775 8.04054443 -5.33630371 7.32986816 -4.765625 6.59765625 C-4.27868164 5.97383057 -3.79173828 5.35000488 -3.29003906 4.70727539 C-2.13594686 3.17991604 -1.06189314 1.59283971 0 0 Z " fill="#000000" transform="translate(229,269)"/>
<path d="M0 0 C3.96 0 7.92 0 12 0 C12 156.75 12 313.5 12 475 C8.04 475 4.08 475 0 475 C0 318.25 0 161.5 0 0 Z " fill="#000000" transform="translate(479,4)"/>
<path d="M0 0 C8.91 0 17.82 0 27 0 C27 56.76 27 113.52 27 172 C18.09 172 9.18 172 0 172 C0 115.24 0 58.48 0 0 Z " fill="#000000" transform="translate(1293,190)"/>
<path d="M0 0 C4.9138643 5.17947858 7.6050936 10.95466458 7.8125 18.125 C7.38610031 26.10316264 4.13345723 32.08664383 -1.6875 37.4375 C-7.86597008 41.34632801 -14.53959436 41.21598477 -21.6875 40.4375 C-27.8847324 38.74734571 -32.2152806 34.75640934 -35.6875 29.4375 C-38.75818221 23.16994315 -38.78624967 15.73514113 -37.0703125 9.0234375 C-34.26927123 2.60335175 -28.94068512 -1.0397325 -22.75 -3.9375 C-14.17792968 -5.68690211 -7.50783856 -4.36502242 0 0 Z " fill="#000000" transform="translate(1321.6875,121.5625)"/>
</svg>
